<svg xmlns="http://www.w3.org/2000/svg" viewBox="0 0 344.75 319.46">
	<title>Intro Tour Tutorial Plugin for WordPress</title>
	<path fill="currentColor"
		d="M344.67,192.14a139.42,139.42,0,0,0-3.47-24.73,196.51,196.51,0,0,0-16.72-44.81,207.52,207.52,0,0,0-12-20.49,182,182,0,0,0-14.51-19,146,146,0,0,0-17.39-17.13,112.18,112.18,0,0,0-21.06-14.06,84.26,84.26,0,0,0-25.32-8.34,75.71,75.71,0,0,0-13.84-.86,73.51,73.51,0,0,0-13.84,1.86,85.06,85.06,0,0,0-24.75,10.4,115.69,115.69,0,0,0-19.93,15.68,162.62,162.62,0,0,0-16.12,18.28,193.76,193.76,0,0,0-13.24,19.83,230.86,230.86,0,0,0-19.56,42.89,184.58,184.58,0,0,0-6.19,23.23,115.69,115.69,0,0,0-1.78,12.48,73.32,73.32,0,0,0,0,14,40.9,40.9,0,0,0,1.78,8.51,29.83,29.83,0,0,0,2.18,5.08,26,26,0,0,0,1.76,2.79,23.48,23.48,0,0,0,2.13,2.55,31.39,31.39,0,0,0,8.17,6.09,51.11,51.11,0,0,0,7.25,3.08,77,77,0,0,0,13.07,3c4.18.64,8.25,1,12.26,1.18a204.07,204.07,0,0,0,46.52-3.71q11.35-2.14,22.46-5.41a178.18,178.18,0,0,0,21.9-8A101.93,101.93,0,0,0,255.05,211a60.55,60.55,0,0,0,10.07-7.37,29.55,29.55,0,0,0,7.95-11.3c.21-.59.4-1.2.56-1.8s.3-1.27.38-1.78c.2-1.08.33-2.17.43-3.27a31.34,31.34,0,0,0-.14-6.57,35.36,35.36,0,0,0-3.85-12,49.51,49.51,0,0,0-6.84-9.85,87.47,87.47,0,0,0-17.41-14.79,151.84,151.84,0,0,0-19.51-10.87,155.52,155.52,0,0,0-20.62-8,155.63,155.63,0,0,1,19.41,10.28,148.3,148.3,0,0,1,17.67,12.71,81.24,81.24,0,0,1,14.47,15.42c3.92,5.64,6.55,11.94,6.56,17.95a21.07,21.07,0,0,1-.44,4.43c-.16.72-.33,1.44-.55,2.14a5.54,5.54,0,0,1-.32.89c-.11.27-.24.53-.37.79a18.13,18.13,0,0,1-5.62,5.78c-5,3.51-11.45,5.93-18,7.8a146.06,146.06,0,0,1-20.44,4c-6.95.92-14,1.46-21,1.74s-14.05.26-21,0l-.38,0c-13.31-.89-33.61-3.07-37.9-8.06-2.13-2.5-2.63-6.76-2.32-11.35.34-2.24.77-4.54,1.26-6.86a158.44,158.44,0,0,1,5.55-19.2,217.62,217.62,0,0,1,17.19-37c6.9-11.67,14.76-22.72,23.89-31.77s19.43-16.05,30-18.74A41.54,41.54,0,0,1,221.64,73a44.6,44.6,0,0,1,8.13.34,54.26,54.26,0,0,1,16.42,5.16,82,82,0,0,1,15.67,10.11,118.84,118.84,0,0,1,14,13.66,150,150,0,0,1,12.13,16,168.83,168.83,0,0,1,10.05,17.61,159.08,159.08,0,0,1,7.79,18.68A133.69,133.69,0,0,1,311,173.81a95.68,95.68,0,0,1,1.83,18.94,53.09,53.09,0,0,1-2.56,16.64,47.73,47.73,0,0,1-8.14,13.9,77.72,77.72,0,0,1-13,12.25C279.26,243,267.48,249.17,255,254a242.54,242.54,0,0,1-39,11.41,284.15,284.15,0,0,1-40.64,5.42,264.37,264.37,0,0,1-40.43-.46c-13.17-1.25-26.06-3.66-37.37-7.54A80.19,80.19,0,0,1,82.46,256a34.37,34.37,0,0,1-9.64-8.11A16.68,16.68,0,0,1,71.56,246c-.29-.54-.71-1.32-1.15-2.16a47,47,0,0,1-2.51-6.15c-.77-2.32-1.5-4.85-2.1-7.52s-1.14-5.47-1.54-8.37a170,170,0,0,1-.69-37.07C65.63,159.09,72.2,133,81.4,107.87A416.11,416.11,0,0,1,117,35.14q10.65-17.38,22.69-34L140.5,0H46.41A512.43,512.43,0,0,0,13.79,86.54C5.39,117.4.1,149.4,0,182.49a230.81,230.81,0,0,0,5.2,50.67c1,4.33,2.14,8.7,3.48,13.07s3,8.85,5,13.34a103.06,103.06,0,0,0,7.14,13.65A74.15,74.15,0,0,0,31.5,286.78a91.83,91.83,0,0,0,25.74,17.79,134.71,134.71,0,0,0,25.84,9.09c17,4.16,33.42,5.57,49.55,5.78a314.68,314.68,0,0,0,47.56-3.23q11.69-1.68,23.21-4.15t22.87-5.67a284.65,284.65,0,0,0,44.43-16.67c14.41-7,28.52-15.28,41.34-26.44A112.51,112.51,0,0,0,329.71,244a81.24,81.24,0,0,0,12.13-25A86.62,86.62,0,0,0,344.67,192.14Z" />
</svg>