<?xml version="1.0" encoding="UTF-8"?>
<svg id="Layer_2" data-name="Layer 2" xmlns="http://www.w3.org/2000/svg" viewBox="0 0 32.29 39.95">
  <defs>
    <style>
      .cls-1 {
        fill: gray;
      }
    </style>
  </defs>
  <g id="_レイヤー_1" data-name="レイヤー 1">
    <path class="cls-1" d="m23.04,0H6.24C2.8,0,0,2.8,0,6.24v27.48c0,3.44,2.8,6.24,6.24,6.24h19.81c3.44,0,6.24-2.8,6.24-6.24V9.09L23.04,0Zm7.03,33.71c0,2.22-1.8,4.02-4.02,4.02H6.24c-2.22,0-4.02-1.8-4.02-4.02V6.24c0-2.22,1.81-4.02,4.02-4.02h15.9l.24.23v3.99c0,1.83,1.5,3.34,3.34,3.34h3.07c.31,0,.61-.05.9-.14l.39.39v23.69Z"/>
    <path class="cls-1" d="m14.96,26.35c-.03.23-.25.4-.66.46-.63,3.48-1.72,6.01-8.36,7.35-.28-.78-1.04-2.05-1.64-2.7,5.76-.88,6.49-2.55,6.87-5.46l3.79.35Zm5.51,3.71c0,.83.15.96,1.11.96h2.65c.88,0,1.04-.45,1.16-3.43.63.5,1.97,1.01,2.78,1.21-.33,4.04-1.14,5.08-3.66,5.08h-3.36c-3.03,0-3.76-.91-3.76-3.79v-4.7H7.94v-14.34h16.67v14.34h-4.14v4.67ZM10.87,13.55v1.57h10.66v-1.57h-10.66Zm0,3.86v1.59h10.66v-1.59h-10.66Zm0,3.91v1.62h10.66v-1.62h-10.66Z"/>
  </g>
</svg>