<?xml version="1.0" encoding="UTF-8"?>
<svg id="Layer_2" data-name="Layer 2" xmlns="http://www.w3.org/2000/svg" viewBox="0 0 32.29 39.95">
  <defs>
    <style>
      .cls-1 {
        fill: gray;
      }
    </style>
  </defs>
  <g id="_レイヤー_1" data-name="レイヤー 1">
    <path class="cls-1" d="m23.04,0H6.24C2.8,0,0,2.8,0,6.24v27.48c0,3.44,2.8,6.24,6.24,6.24h19.81c3.44,0,6.24-2.8,6.24-6.24V9.09L23.04,0Zm7.03,33.71c0,2.22-1.8,4.02-4.02,4.02H6.24c-2.22,0-4.02-1.8-4.02-4.02V6.24c0-2.22,1.81-4.02,4.02-4.02h15.9l.24.23v3.99c0,1.83,1.5,3.34,3.34,3.34h3.07c.31,0,.61-.05.9-.14l.39.39v23.69Z"/>
    <path class="cls-1" d="m13.95,14.46v2.4H4.28v-2.4h9.67Zm-.78,10.56v7.73h-5.2v.98h-2.55v-8.71h7.75Zm-.05-7v2.3h-7.63v-2.3h7.63Zm-7.63,5.76v-2.27h7.63v2.27h-7.63Zm7.58-12.73v2.3h-7.5v-2.3h7.5Zm-2.47,16.36h-2.63v2.93h2.63v-2.93Zm11.89-8.86h5.61v2.4h-14.42v-2.4h5.81v-1.04h-4.24v-2.17h4.24v-.96h-4.72v-2.25h4.72v-1.89l3.69.18c-.03.25-.2.4-.68.5v1.21h5.15v2.25h-5.15v.96h4.7v2.17h-4.7v1.04Zm4.07,3.28v9.55c0,2.53-1.31,2.73-4.82,2.73-.13-.73-.48-1.74-.81-2.4.91.05,1.97.05,2.27.05.33-.03.43-.1.43-.4v-.98h-5.1v3.69h-2.88v-12.22h10.91Zm-2.93,2.27h-5.1v1.01h5.1v-1.01Zm-5.1,4.17h5.1v-1.06h-5.1v1.06Z"/>
  </g>
</svg>