<?xml version="1.0" encoding="UTF-8"?>
<svg id="Layer_2" data-name="Layer 2" xmlns="http://www.w3.org/2000/svg" viewBox="0 0 32.29 39.95">
  <defs>
    <style>
      .cls-1 {
        fill: gray;
      }
    </style>
  </defs>
  <g id="_レイヤー_1" data-name="レイヤー 1">
    <path class="cls-1" d="m23.04,0H6.24C2.8,0,0,2.8,0,6.24v27.48c0,3.44,2.8,6.24,6.24,6.24h19.81c3.44,0,6.24-2.8,6.24-6.24V9.09L23.04,0Zm7.03,33.71c0,2.22-1.8,4.02-4.02,4.02H6.24c-2.22,0-4.02-1.8-4.02-4.02V6.24c0-2.22,1.81-4.02,4.02-4.02h15.9l.24.23v3.99c0,1.83,1.5,3.34,3.34,3.34h3.07c.31,0,.61-.05.9-.14l.39.39v23.69Z"/>
    <path class="cls-1" d="m23.29,23.27l3.84.23c-.03.23-.2.4-.68.48v10.1h-3.16v-1.49h-14.14v1.52h-3.08v-10.83l3.79.2c-.03.25-.23.43-.71.48v5.66h5.33v-7.7h-7.4v-9.27l3.74.23c-.02.25-.23.4-.71.48v5.61h4.37v-8.43l3.84.2c-.03.25-.23.4-.71.51v7.73h4.62v-6.31l3.89.2c-.02.25-.2.4-.68.5v8.56h-7.83v7.7h5.68v-6.34Z"/>
  </g>
</svg>