<?xml version="1.0" encoding="UTF-8"?>
<svg id="Layer_2" data-name="Layer 2" xmlns="http://www.w3.org/2000/svg" viewBox="0 0 32.29 39.95">
  <defs>
    <style>
      .cls-1 {
        fill: gray;
      }
    </style>
  </defs>
  <g id="_レイヤー_1" data-name="レイヤー 1">
    <path class="cls-1" d="m23.04,0H6.24C2.8,0,0,2.8,0,6.24v27.48c0,3.44,2.8,6.24,6.24,6.24h19.81c3.44,0,6.24-2.8,6.24-6.24V9.09L23.04,0Zm7.03,33.71c0,2.22-1.8,4.02-4.02,4.02H6.24c-2.22,0-4.02-1.8-4.02-4.02V6.24c0-2.22,1.81-4.02,4.02-4.02h15.9l.24.23v3.99c0,1.83,1.5,3.34,3.34,3.34h3.07c.31,0,.61-.05.9-.14l.39.39v23.69Z"/>
    <path class="cls-1" d="m27.26,14.92v16.06c0,2.68-1.06,3.08-4.55,3.08-.1-.76-.45-2-.78-2.73.45.03.93.03,1.34.03,1.14,0,1.26,0,1.26-.4v-3.96l-1.19,1.14c-.46-1.26-1.26-2.95-2.15-4.65-.58,1.97-1.46,3.69-2.78,5.08-.23-.35-.61-.81-1.01-1.21v6.74h-2.65v-4.09c-.68.23-1.41.5-2.27.81-.23-1.34-.91-3.43-1.52-5l2.27-.76c.58,1.39,1.16,3.08,1.52,4.39v-5.53l-1.92.88c-.08-.35-.2-.76-.35-1.19l-1.64.1v10.38h-2.68v-8.18c-.08.15-.25.25-.56.23-.25,2.07-.73,4.5-1.46,6.04-.53-.35-1.52-.78-2.12-1.06.63-1.39,1.04-3.79,1.24-5.93l2.9.68v-1.97c-1.14.08-2.17.13-3.01.15-.08.25-.28.35-.45.38l-.61-3.03h1.92c.4-.51.81-1.04,1.21-1.59-.76-1.11-1.97-2.47-3.06-3.46l1.44-2.07.56.48c.76-1.41,1.52-3.13,1.94-4.47l3.03,1.24c-.1.18-.35.28-.68.25-.66,1.41-1.72,3.28-2.6,4.67.35.38.66.73.91,1.09.91-1.46,1.77-2.95,2.4-4.24l2.9,1.31c-.13.18-.38.28-.73.28-1.16,1.92-2.93,4.44-4.6,6.46l2.78-.03c-.3-.68-.66-1.34-1.01-1.94l2.2-.98c.78,1.24,1.54,2.73,2.05,4.02v-7.47h4.82c.03-1.46.05-3.03.05-4.67l3.48.18c-.03.28-.23.43-.66.5-.03,1.36-.05,2.7-.1,3.99h4.9Zm-9.85,2.78v7.8c1.29-2.02,1.82-4.67,2.05-7.8h-2.05Zm7.12,0h-2.35c-.05.63-.1,1.24-.18,1.84.88,1.49,1.79,3.16,2.53,4.62v-6.46Z"/>
  </g>
</svg>