<?xml version="1.0" encoding="UTF-8"?>
<svg id="Layer_2" data-name="Layer 2" xmlns="http://www.w3.org/2000/svg" viewBox="0 0 32.29 39.95">
  <defs>
    <style>
      .cls-1 {
        fill: gray;
      }
    </style>
  </defs>
  <g id="_レイヤー_1" data-name="レイヤー 1">
    <path class="cls-1" d="m23.04,0H6.24C2.8,0,0,2.8,0,6.24v27.48c0,3.44,2.8,6.24,6.24,6.24h19.81c3.44,0,6.24-2.8,6.24-6.24V9.09L23.04,0Zm7.03,33.71c0,2.22-1.8,4.02-4.02,4.02H6.24c-2.22,0-4.02-1.8-4.02-4.02V6.24c0-2.22,1.81-4.02,4.02-4.02h15.9l.24.23v3.99c0,1.83,1.5,3.34,3.34,3.34h3.07c.31,0,.61-.05.9-.14l.39.39v23.69Z"/>
    <path class="cls-1" d="m27.11,15.55v13.48h-11.34v-13.13l-1.62,2.37c-.18-.28-.4-.61-.68-.93v2.1h-6.44v-1.39c-.48.56-1.01,1.09-1.59,1.59-.28-.68-1.04-1.94-1.57-2.42,2.35-2.05,3.91-4.75,4.77-6.97l3.31.56c-.08.23-.25.38-.63.4v.03c1.59,1.39,3.51,3.18,4.44,4.47v-.15h3.59l.3-1.72h-4.82v-2.55h13.16v2.55h-5.15c-.15.53-.33,1.11-.53,1.72h4.8Zm-12.58,5.61v7.07c0,2.32-.81,2.78-3.79,2.78-.08-.78-.35-1.84-.68-2.58.71.02,1.34.02,1.57.02s.28-.08.28-.3v-4.37h-2.1v10.28h-2.68v-10.28h-2.07v-2.63h9.47Zm-1.41-4.24c-.86-1.04-1.97-2.2-3.03-3.18-.58,1.06-1.26,2.12-2.1,3.18h5.13Zm7.73,13.74c-.1.1-.25.15-.46.18-1.14,1.14-3.48,2.58-5.48,3.33-.48-.56-1.36-1.46-2-1.97,1.94-.71,4.19-2.07,5.3-3.16l2.63,1.62Zm3.36-11.26v-1.62h-5.68v1.62h5.68Zm0,3.69v-1.62h-5.68v1.62h5.68Zm0,3.74v-1.64h-5.68v1.64h5.68Zm1.89,7.32c-.88-.93-2.78-2.42-4.22-3.43l2.25-1.54c1.41.93,3.33,2.32,4.34,3.28l-2.37,1.69Z"/>
  </g>
</svg>