<?xml version="1.0" encoding="UTF-8"?>
<svg id="Layer_2" data-name="Layer 2" xmlns="http://www.w3.org/2000/svg" viewBox="0 0 32.29 39.95">
  <defs>
    <style>
      .cls-1 {
        fill: gray;
      }
    </style>
  </defs>
  <g id="_レイヤー_1" data-name="レイヤー 1">
    <path class="cls-1" d="m23.04,0H6.24C2.8,0,0,2.8,0,6.24v27.48c0,3.44,2.8,6.24,6.24,6.24h19.81c3.44,0,6.24-2.8,6.24-6.24V9.09L23.04,0Zm7.03,33.71c0,2.22-1.8,4.02-4.02,4.02H6.24c-2.22,0-4.02-1.8-4.02-4.02V6.24c0-2.22,1.81-4.02,4.02-4.02h15.9l.24.23v3.99c0,1.83,1.5,3.34,3.34,3.34h3.07c.31,0,.61-.05.9-.14l.39.39v23.69Z"/>
    <path class="cls-1" d="m22.43,18.83h5.66v2.35h-13.61v-2.35h4.98v-.93h-4.02v-2.25h4.02v-.91h-4.6v-2.02c-.1.08-.25.1-.46.1-.43,1.62-1.19,3.91-1.84,5.35-.5-.18-1.14-.38-1.69-.58v1.31h3.11v2.83h-3.11v.58c.93.91,2.98,3.16,3.46,3.74l-1.82,2.42c-.35-.68-.99-1.67-1.64-2.63v8.21h-2.83v-7.6c-.76,1.84-1.62,3.56-2.55,4.77-.28-.93-.96-2.27-1.44-3.11,1.29-1.54,2.55-4.12,3.36-6.39h-2.96v-2.83h3.59v-8.66l3.46.2c-.03.23-.2.38-.63.45v5.88c.51-1.52.99-3.54,1.24-5.05l2.75.73v-.05h4.6v-2.15l3.66.18c-.03.25-.23.4-.68.48v1.49h4.87v2.32h-4.87v.91h4.17v2.25h-4.17v.93Zm-15.88-6.92c.68,1.77,1.16,4.09,1.24,5.63l-2.27.56c-.03-1.52-.48-3.86-1.09-5.66l2.12-.53Zm20.03,10.2v9.37c0,2.25-.86,2.63-4.57,2.63-.15-.68-.48-1.64-.78-2.3.48.03,1.01.05,1.41.05.93,0,1.04,0,1.04-.38v-.88h-5.33v3.49h-2.8v-11.97h11.04Zm-2.9,2.27h-5.33v.99h5.33v-.99Zm-5.33,4.12h5.33v-1.01h-5.33v1.01Z"/>
  </g>
</svg>